<?xml version="1.0" encoding="UTF-8" standalone="no"?>
<!DOCTYPE svg PUBLIC "-//W3C//DTD SVG 1.1//EN"
 "http://www.w3.org/Graphics/SVG/1.1/DTD/svg11.dtd">
<!-- Generated by graphviz version 2.44.1 (20200629.0846)
 -->
<!-- Title: g Pages: 1 -->
<svg width="660pt" height="529pt"
 viewBox="0.00 0.00 660.00 529.20" xmlns="http://www.w3.org/2000/svg" xmlns:xlink="http://www.w3.org/1999/xlink">
<g id="graph0" class="graph" transform="scale(1 1) rotate(0) translate(4 525.2)">
<title>g</title>
<polygon fill="white" stroke="transparent" points="-4,4 -4,-525.2 656,-525.2 656,4 -4,4"/>
<g id="clust1" class="cluster">
<title>cluster_15833472</title>
<polygon fill="#ececec" stroke="black" points="8,-8 8,-513.2 644,-513.2 644,-8 8,-8"/>
<text text-anchor="middle" x="38.16" y="-496.6" font-family="Times New Roman,serif" font-size="14.00">blueocn</text>
</g>
<!-- Accelerator15833472 -->
<g id="node1" class="node">
<title>Accelerator15833472</title>
<polygon fill="#ffffff" stroke="transparent" points="109.5,-102 16.5,-102 16.5,-28 109.5,-28 109.5,-102"/>
<text text-anchor="start" x="21.53" y="-84.4" font-family="Times New Roman,serif" font-size="14.00">(C)Accelerator</text>
<text text-anchor="start" x="22" y="-60.4" font-family="Times New Roman,serif" font-size="14.00">+ lift()</text>
<text text-anchor="start" x="22" y="-36.4" font-family="Times New Roman,serif" font-size="14.00">+ press()</text>
<polygon fill="black" stroke="black" points="17,-77 17,-77 110,-77 110,-77 17,-77"/>
<polygon fill="none" stroke="black" points="16.5,-28 16.5,-102 109.5,-102 109.5,-28 16.5,-28"/>
</g>
<!-- Car15833472 -->
<g id="node2" class="node">
<title>Car15833472</title>
<polygon fill="#ffffff" stroke="transparent" points="348,-480.4 216,-480.4 216,-430.4 348,-430.4 348,-480.4"/>
<text text-anchor="start" x="221" y="-462.8" font-family="Times New Roman,serif" font-size="14.00">(C)Car</text>
<text text-anchor="start" x="220.52" y="-438.8" font-family="Times New Roman,serif" font-size="14.00">+ main(args: String[])</text>
<polygon fill="black" stroke="black" points="216,-455.4 216,-455.4 348,-455.4 348,-455.4 216,-455.4"/>
<polygon fill="none" stroke="black" points="216,-430.4 216,-480.4 348,-480.4 348,-430.4 216,-430.4"/>
</g>
<!-- CarFacade15833472 -->
<g id="node3" class="node">
<title>CarFacade15833472</title>
<polygon fill="#ffffff" stroke="transparent" points="379.5,-377.6 184.5,-377.6 184.5,-183.6 379.5,-183.6 379.5,-377.6"/>
<text text-anchor="start" x="190" y="-360" font-family="Times New Roman,serif" font-size="14.00">(C)CarFacade</text>
<text text-anchor="start" x="189.81" y="-336" font-family="Times New Roman,serif" font-size="14.00"># &#160;&#160;accelerator: Accelerator [0..1]</text>
<text text-anchor="start" x="190" y="-312" font-family="Times New Roman,serif" font-size="14.00"># &#160;&#160;clutch: Clutch [0..1]</text>
<text text-anchor="start" x="190" y="-288" font-family="Times New Roman,serif" font-size="14.00"># &#160;&#160;gearStick: GearStick [0..1]</text>
<text text-anchor="start" x="190" y="-264" font-family="Times New Roman,serif" font-size="14.00"># &#160;&#160;handbrake: Handbrake [0..1]</text>
<text text-anchor="start" x="190" y="-240" font-family="Times New Roman,serif" font-size="14.00"># &#160;&#160;ignition: Ignition [0..1]</text>
<text text-anchor="start" x="190" y="-216" font-family="Times New Roman,serif" font-size="14.00">&#45; changeGear(gear: int)</text>
<text text-anchor="start" x="190" y="-192" font-family="Times New Roman,serif" font-size="14.00">+ drive()</text>
<polygon fill="black" stroke="black" points="185,-352.6 185,-352.6 380,-352.6 380,-352.6 185,-352.6"/>
<polygon fill="black" stroke="black" points="185,-232.6 185,-232.6 380,-232.6 380,-232.6 185,-232.6"/>
<polygon fill="none" stroke="black" points="184.5,-183.6 184.5,-377.6 379.5,-377.6 379.5,-183.6 184.5,-183.6"/>
</g>
<!-- Car15833472&#45;&gt;CarFacade15833472 -->
<g id="edge1" class="edge">
<title>Car15833472&#45;&gt;CarFacade15833472</title>
<path fill="none" stroke="black" d="M282,-430.37C282,-418.81 282,-404.06 282,-388.35"/>
<polygon fill="black" stroke="black" points="285.5,-387.92 282,-377.92 278.5,-387.92 285.5,-387.92"/>
<text text-anchor="middle" x="329.48" y="-399.8" font-family="Times New Roman,serif" font-size="14.00">main() &#45;&gt; drive()</text>
</g>
<!-- CarFacade15833472&#45;&gt;Accelerator15833472 -->
<g id="edge2" class="edge">
<title>CarFacade15833472&#45;&gt;Accelerator15833472</title>
<path fill="none" stroke="black" d="M184.26,-204.51C156.48,-183.17 133.61,-165.6 133.61,-165.6 133.61,-165.6 113.47,-137.2 94.71,-110.73"/>
<polygon fill="black" stroke="black" points="97.33,-108.37 88.69,-102.24 91.62,-112.42 97.33,-108.37"/>
<text text-anchor="middle" x="163.69" y="-153" font-family="Times New Roman,serif" font-size="14.00">accelerator</text>
<text text-anchor="middle" x="163.69" y="-136.2" font-family="Times New Roman,serif" font-size="14.00">[0..1]</text>
</g>
<!-- Clutch15833472 -->
<g id="node4" class="node">
<title>Clutch15833472</title>
<polygon fill="#ffffff" stroke="transparent" points="192.5,-102 127.5,-102 127.5,-28 192.5,-28 192.5,-102"/>
<text text-anchor="start" x="132.5" y="-84.4" font-family="Times New Roman,serif" font-size="14.00">(C)Clutch</text>
<text text-anchor="start" x="133" y="-60.4" font-family="Times New Roman,serif" font-size="14.00">+ lift()</text>
<text text-anchor="start" x="133" y="-36.4" font-family="Times New Roman,serif" font-size="14.00">+ press()</text>
<polygon fill="black" stroke="black" points="128,-77 128,-77 193,-77 193,-77 128,-77"/>
<polygon fill="none" stroke="black" points="127.5,-28 127.5,-102 192.5,-102 192.5,-28 127.5,-28"/>
</g>
<!-- CarFacade15833472&#45;&gt;Clutch15833472 -->
<g id="edge3" class="edge">
<title>CarFacade15833472&#45;&gt;Clutch15833472</title>
<path fill="none" stroke="black" d="M227.07,-183.42C212.62,-158.13 197.72,-132.04 185.64,-110.9"/>
<polygon fill="black" stroke="black" points="188.65,-109.1 180.65,-102.15 182.57,-112.57 188.65,-109.1"/>
<text text-anchor="middle" x="230.11" y="-153" font-family="Times New Roman,serif" font-size="14.00">clutch</text>
<text text-anchor="middle" x="230.11" y="-136.2" font-family="Times New Roman,serif" font-size="14.00">[0..1]</text>
</g>
<!-- GearStick15833472 -->
<g id="node5" class="node">
<title>GearStick15833472</title>
<polygon fill="#ffffff" stroke="transparent" points="353.5,-102 210.5,-102 210.5,-28 353.5,-28 353.5,-102"/>
<text text-anchor="start" x="216" y="-84.4" font-family="Times New Roman,serif" font-size="14.00">(C)GearStick</text>
<text text-anchor="start" x="216" y="-60.4" font-family="Times New Roman,serif" font-size="14.00">&#45; &#160;&#160;gear: int [1]</text>
<text text-anchor="start" x="215.59" y="-36.4" font-family="Times New Roman,serif" font-size="14.00">+ changeGear(gear: int)</text>
<polygon fill="black" stroke="black" points="211,-77 211,-77 354,-77 354,-77 211,-77"/>
<polygon fill="black" stroke="black" points="211,-53 211,-53 354,-53 354,-53 211,-53"/>
<polygon fill="none" stroke="black" points="210.5,-28 210.5,-102 353.5,-102 353.5,-28 210.5,-28"/>
</g>
<!-- CarFacade15833472&#45;&gt;GearStick15833472 -->
<g id="edge4" class="edge">
<title>CarFacade15833472&#45;&gt;GearStick15833472</title>
<path fill="none" stroke="black" d="M282,-183.42C282,-158.7 282,-133.21 282,-112.32"/>
<polygon fill="black" stroke="black" points="285.5,-112.15 282,-102.15 278.5,-112.15 285.5,-112.15"/>
<text text-anchor="middle" x="308.43" y="-153" font-family="Times New Roman,serif" font-size="14.00">gearStick</text>
<text text-anchor="middle" x="308.43" y="-136.2" font-family="Times New Roman,serif" font-size="14.00">[0..1]</text>
</g>
<!-- Handbrake15833472 -->
<g id="node6" class="node">
<title>Handbrake15833472</title>
<polygon fill="#ffffff" stroke="transparent" points="494.5,-114 371.5,-114 371.5,-16 494.5,-16 494.5,-114"/>
<text text-anchor="start" x="377" y="-96.4" font-family="Times New Roman,serif" font-size="14.00">(C)Handbrake</text>
<text text-anchor="start" x="376.93" y="-72.4" font-family="Times New Roman,serif" font-size="14.00">&#45; &#160;&#160;isUp: boolean [1]</text>
<text text-anchor="start" x="377" y="-48.4" font-family="Times New Roman,serif" font-size="14.00">+ liftUp()</text>
<text text-anchor="start" x="377" y="-24.4" font-family="Times New Roman,serif" font-size="14.00">+ pushDown()</text>
<polygon fill="black" stroke="black" points="372,-89 372,-89 495,-89 495,-89 372,-89"/>
<polygon fill="black" stroke="black" points="372,-65 372,-65 495,-65 495,-65 372,-65"/>
<polygon fill="none" stroke="black" points="371.5,-16 371.5,-114 494.5,-114 494.5,-16 371.5,-16"/>
</g>
<!-- CarFacade15833472&#45;&gt;Handbrake15833472 -->
<g id="edge5" class="edge">
<title>CarFacade15833472&#45;&gt;Handbrake15833472</title>
<path fill="none" stroke="black" d="M349.99,-183.42C364.72,-162.59 379.84,-141.2 393.06,-122.49"/>
<polygon fill="black" stroke="black" points="396.09,-124.28 399,-114.09 390.37,-120.24 396.09,-124.28"/>
<text text-anchor="middle" x="413.15" y="-153" font-family="Times New Roman,serif" font-size="14.00">handbrake</text>
<text text-anchor="middle" x="413.15" y="-136.2" font-family="Times New Roman,serif" font-size="14.00">[0..1]</text>
</g>
<!-- Ignition15833472 -->
<g id="node7" class="node">
<title>Ignition15833472</title>
<polygon fill="#ffffff" stroke="transparent" points="635.5,-114 512.5,-114 512.5,-16 635.5,-16 635.5,-114"/>
<text text-anchor="start" x="518" y="-96.4" font-family="Times New Roman,serif" font-size="14.00">(C)Ignition</text>
<text text-anchor="start" x="517.93" y="-72.4" font-family="Times New Roman,serif" font-size="14.00">&#45; &#160;&#160;isOn: boolean [1]</text>
<text text-anchor="start" x="518" y="-48.4" font-family="Times New Roman,serif" font-size="14.00">+ turnOff()</text>
<text text-anchor="start" x="518" y="-24.4" font-family="Times New Roman,serif" font-size="14.00">+ turnOn()</text>
<polygon fill="black" stroke="black" points="513,-89 513,-89 636,-89 636,-89 513,-89"/>
<polygon fill="black" stroke="black" points="513,-65 513,-65 636,-65 636,-65 513,-65"/>
<polygon fill="none" stroke="black" points="512.5,-16 512.5,-114 635.5,-114 635.5,-16 512.5,-16"/>
</g>
<!-- CarFacade15833472&#45;&gt;Ignition15833472 -->
<g id="edge6" class="edge">
<title>CarFacade15833472&#45;&gt;Ignition15833472</title>
<path fill="none" stroke="black" d="M379.77,-211.64C414.89,-187.23 446,-165.6 446,-165.6 446,-165.6 474.24,-143.62 504.2,-120.32"/>
<polygon fill="black" stroke="black" points="506.51,-122.95 512.25,-114.05 502.21,-117.43 506.51,-122.95"/>
<text text-anchor="middle" x="508.78" y="-153" font-family="Times New Roman,serif" font-size="14.00">ignition</text>
<text text-anchor="middle" x="508.78" y="-136.2" font-family="Times New Roman,serif" font-size="14.00">[0..1]</text>
</g>
</g>
</svg>
